<?xml version="1.0" encoding="utf-8"?>
<svg xmlns="http://www.w3.org/2000/svg" xmlns:xlink="http://www.w3.org/1999/xlink" width="1024" height="1024" viewBox="75 80 200 165">
  <defs>
    <linearGradient id="gradient_0" gradientUnits="userSpaceOnUse" x1="496.23489" y1="651.96539" x2="803.57208" y2="355.34506">
      <stop offset="0" stop-color="#7E74E6"/>
      <stop offset="1" stop-color="#BCABFF"/>
    </linearGradient>
  </defs>
  <path fill="url(#gradient_0)" transform="scale(0.335375 0.335375)" d="M779.975 277.354L786.007 275.005C778.71 289.749 771.525 304.548 764.451 319.4C726.902 396.483 689.891 473.827 653.423 551.427L613.737 634.213C604.808 652.768 595.391 671.701 586.974 690.437L518.012 644.74C512.655 641.248 499.35 631.606 494.907 629.426C486.221 637.85 421.444 708.158 419.229 708.332L418.896 707.797C418.547 705.639 413.42 686.023 412.616 685.021C412.13 680.535 409.973 673.402 408.715 668.722L402.204 643.995C394.249 612.81 385.717 577.685 376.554 546.995C372.414 542.733 353.123 530.724 347.619 526.923C320.57 508.241 292.083 490.94 265.04 472.35C284.614 465.717 306.932 456.736 326.405 449.296L408.236 418.253L604.941 343.878L675.798 316.837C696.215 308.94 717.736 300.36 738.378 293.112C743.692 290.876 751.826 287.729 757.189 285.907C759.129 284.777 776.795 278.513 779.975 277.354Z"/>
  <defs>
    <linearGradient id="gradient_1" gradientUnits="userSpaceOnUse" x1="363.18701" y1="556.62274" x2="680.25244" y2="195.44624">
      <stop offset="0" stop-color="#8377E8"/>
      <stop offset="1" stop-color="#C4B3FF"/>
    </linearGradient>
  </defs>
  <path fill="url(#gradient_1)" transform="scale(0.335375 0.335375)" d="M779.975 277.354L786.007 275.005C778.71 289.749 771.525 304.548 764.451 319.4C763.077 317.726 762.385 318.383 761.413 317.509C757.572 314.051 757.344 309.148 754.941 305.101L754.096 304.98C752.328 306.562 751.799 307.286 749.529 307.922C745.791 310.707 740.819 315.464 737.191 318.715L714.874 338.637L631.654 412.325C625.106 418.068 618.597 423.856 612.128 429.688C610.386 431.245 603.754 437.28 602.236 438.197L601.191 437.804C603.78 427.506 591 422.361 583.347 420.539C581.647 420.134 578.788 418.281 578.238 416.559C577.201 413.314 582.851 412.71 584.317 409.605C579.529 412.595 571.127 417.909 566.785 421.198C563.186 423.531 558.887 426.157 555.423 428.575L424.194 515.293L392.44 536.07C389.096 538.257 379.024 544.58 376.554 546.995C372.414 542.733 353.123 530.724 347.619 526.923C320.57 508.241 292.083 490.94 265.04 472.35C284.614 465.717 306.932 456.736 326.405 449.296L408.236 418.253L604.941 343.878L675.798 316.837C696.215 308.94 717.736 300.36 738.378 293.112C743.692 290.876 751.826 287.729 757.189 285.907C759.129 284.777 776.795 278.513 779.975 277.354Z"/>
  <path fill="#4E45AB" transform="scale(0.335375 0.335375)" d="M779.975 277.354L786.007 275.005C778.71 289.749 771.525 304.548 764.451 319.4C763.077 317.726 762.385 318.383 761.413 317.509C757.572 314.051 757.344 309.148 754.941 305.101L754.096 304.98C752.328 306.562 751.799 307.286 749.529 307.922C745.791 310.707 740.819 315.464 737.191 318.715L714.874 338.637L631.654 412.325C625.106 418.068 618.597 423.856 612.128 429.688C610.386 431.245 603.754 437.28 602.236 438.197L601.191 437.804C603.78 427.506 591 422.361 583.347 420.539C581.647 420.134 578.788 418.281 578.238 416.559C577.201 413.314 582.851 412.71 584.317 409.605C585.431 408.323 596.327 401.435 598.295 400.127L640.262 372.22L725.444 314.93L759.671 292.029C766.144 287.714 774.146 282.083 780.738 278.266L779.975 277.354Z"/>
  <path fill="#A698F8" transform="scale(0.335375 0.335375)" d="M779.975 277.354L786.007 275.005C778.71 289.749 771.525 304.548 764.451 319.4C763.077 317.726 762.385 318.383 761.413 317.509C757.572 314.051 757.344 309.148 754.941 305.101L754.096 304.98C752.328 306.562 751.799 307.286 749.529 307.922C754.619 301.845 767.442 292.039 773.542 286.001C776.015 283.554 778.756 281.786 781.195 278.846L780.738 278.266L779.975 277.354Z"/>
  <path fill="#A698F8" transform="scale(0.335375 0.335375)" d="M757.189 285.907C752.84 290.018 744.434 293.763 738.378 293.112C743.692 290.876 751.826 287.729 757.189 285.907Z"/>
  <defs>
    <linearGradient id="gradient_2" gradientUnits="userSpaceOnUse" x1="546.19739" y1="649.70563" x2="463.9877" y2="465.41272">
      <stop offset="0" stop-color="#191852"/>
      <stop offset="1" stop-color="#483E9B"/>
    </linearGradient>
  </defs>
  <path fill="url(#gradient_2)" transform="scale(0.335375 0.335375)" d="M584.317 409.605C582.851 412.71 577.201 413.314 578.238 416.559C578.788 418.281 581.647 420.134 583.347 420.539C591 422.361 603.78 427.506 601.191 437.804L602.236 438.197L535.159 497.943C501.466 527.463 466.083 557.914 433.01 588.122C452.416 601.321 475.079 617.242 494.907 629.426C486.221 637.85 421.444 708.158 419.229 708.332L418.896 707.797C418.547 705.639 413.42 686.023 412.616 685.021C412.13 680.535 409.973 673.402 408.715 668.722L402.204 643.995C394.249 612.81 385.717 577.685 376.554 546.995C379.024 544.58 389.096 538.257 392.44 536.07L424.194 515.293L555.423 428.575C558.887 426.157 563.186 423.531 566.785 421.198C571.127 417.909 579.529 412.595 584.317 409.605Z"/>
  <path fill="#4E45AB" transform="scale(0.335375 0.335375)" d="M555.423 428.575C558.887 426.157 563.186 423.531 566.785 421.198C567.736 426.419 563.843 428.279 559.319 428.65C558.021 428.751 556.716 428.726 555.423 428.575Z"/>
  <path fill="#A698F8" transform="scale(0.335375 0.335375)" d="M747.278 347.251L747.954 347.94L747.871 348.96C746.891 350.548 746.977 350.556 745.337 351.639L744.838 351.323C744.745 350.103 746.348 348.494 747.278 347.251Z"/>
  <path fill="#A698F8" transform="scale(0.335375 0.335375)" d="M370.28 638.005C376.586 638.358 381.927 638.208 388.24 638.047C390.726 642.087 393.989 649.112 396.255 653.567C401.542 664.137 406.996 674.624 412.616 685.021C413.42 686.023 418.547 705.639 418.896 707.797C415.834 707.354 411.46 707.132 408.282 706.877C400.626 695.432 389.806 675.102 382.779 662.514C380.557 677.624 378.479 692.755 376.547 707.906L360.283 707.85C362.605 685.215 367.964 661.222 370.28 638.005Z"/>
</svg>
